<svg width="190" height="16" viewBox="0 0 190 16" fill="none" xmlns="http://www.w3.org/2000/svg">
<path d="M9.88281 12.7148L9.48242 15H2.12891L2.51953 12.7148H9.88281ZM5.53711 0.78125L3.06641 15H0.205078L2.66602 0.78125H5.53711ZM9.99023 6.57227L9.59961 8.79883H3.20312L3.59375 6.57227H9.99023ZM11.9336 0.78125L11.5332 3.07617H4.18945L4.59961 0.78125H11.9336ZM17.7344 8.75977H14.0625L14.4043 6.74805L17.2363 6.75781C17.666 6.75781 18.0762 6.69922 18.4668 6.58203C18.8639 6.45833 19.196 6.25977 19.4629 5.98633C19.7363 5.70638 19.9089 5.33203 19.9805 4.86328C20.0391 4.42057 20 4.07227 19.8633 3.81836C19.7266 3.56445 19.5085 3.38216 19.209 3.27148C18.916 3.1543 18.5677 3.09245 18.1641 3.08594L16.0547 3.07617L13.9844 15H11.123L13.584 0.78125L18.252 0.791016C18.8639 0.797526 19.4564 0.869141 20.0293 1.00586C20.6022 1.14258 21.11 1.35742 21.5527 1.65039C21.9954 1.94336 22.3372 2.33073 22.5781 2.8125C22.8255 3.29427 22.9264 3.88672 22.8809 4.58984C22.8353 5.35807 22.6139 5.98958 22.2168 6.48438C21.8197 6.97266 21.3118 7.34049 20.6934 7.58789C20.0814 7.83529 19.4238 7.97852 18.7207 8.01758L17.7344 8.75977ZM16.5723 15H12.1387L13.6426 12.7148L16.6602 12.7246C17.0898 12.7246 17.4902 12.653 17.8613 12.5098C18.2389 12.36 18.5547 12.1387 18.8086 11.8457C19.0625 11.5527 19.222 11.1784 19.2871 10.7227C19.3457 10.3385 19.3294 10.0033 19.2383 9.7168C19.1471 9.42383 18.9779 9.19922 18.7305 9.04297C18.4896 8.88021 18.1673 8.78906 17.7637 8.76953L14.873 8.75977L15.2344 6.74805L18.5547 6.75781L19.043 7.53906C19.681 7.57161 20.2344 7.7181 20.7031 7.97852C21.1784 8.23242 21.5397 8.59375 21.7871 9.0625C22.0345 9.53125 22.1354 10.0944 22.0898 10.752C22.0247 11.7676 21.7285 12.5879 21.2012 13.2129C20.6738 13.8379 20 14.2936 19.1797 14.5801C18.3659 14.8665 17.4967 15.0065 16.5723 15ZM31.1523 3.35938L25.4297 15H22.2852L29.8828 0.78125H31.8945L31.1523 3.35938ZM32.2852 15L30.5469 3.05664L30.6543 0.78125H32.5391L35.2246 15H32.2852ZM33.0078 9.70703L32.6074 12.002H25.293L25.6934 9.70703H33.0078ZM45.1367 10.293L47.9297 10.2539C47.806 11.3021 47.4512 12.2005 46.8652 12.9492C46.2858 13.6914 45.5566 14.2578 44.6777 14.6484C43.7988 15.0326 42.8451 15.2148 41.8164 15.1953C40.8659 15.1758 40.0651 14.974 39.4141 14.5898C38.763 14.1992 38.252 13.6784 37.8809 13.0273C37.5098 12.3763 37.2656 11.6504 37.1484 10.8496C37.0312 10.0488 37.0247 9.22852 37.1289 8.38867L37.2656 7.40234C37.3958 6.51693 37.6335 5.66081 37.9785 4.83398C38.3301 4.00716 38.7891 3.27148 39.3555 2.62695C39.9219 1.98242 40.5924 1.47461 41.3672 1.10352C42.1419 0.732422 43.0208 0.556641 44.0039 0.576172C45.0326 0.595703 45.9017 0.817057 46.6113 1.24023C47.3275 1.6569 47.8776 2.23958 48.2617 2.98828C48.6523 3.73047 48.8704 4.59961 48.916 5.5957L46.0742 5.58594C46.0807 5.05859 46.0156 4.59635 45.8789 4.19922C45.7487 3.79557 45.5208 3.48307 45.1953 3.26172C44.8698 3.03385 44.4206 2.91016 43.8477 2.89062C43.2227 2.87109 42.6921 2.99479 42.2559 3.26172C41.8197 3.52865 41.4583 3.88672 41.1719 4.33594C40.8919 4.78516 40.6706 5.27669 40.5078 5.81055C40.3516 6.3444 40.2344 6.86849 40.1562 7.38281L40.0195 8.39844C39.9674 8.82161 39.9316 9.29036 39.9121 9.80469C39.8926 10.3125 39.9349 10.7975 40.0391 11.2598C40.1432 11.722 40.3451 12.1061 40.6445 12.4121C40.944 12.7116 41.39 12.8711 41.9824 12.8906C42.5684 12.9102 43.0729 12.819 43.4961 12.6172C43.9258 12.4154 44.2741 12.1159 44.541 11.7188C44.8145 11.3216 45.013 10.8464 45.1367 10.293ZM56.9141 11.2109C56.9727 10.8659 56.9434 10.5762 56.8262 10.3418C56.7155 10.1009 56.5462 9.89909 56.3184 9.73633C56.097 9.56706 55.8464 9.42383 55.5664 9.30664C55.293 9.18945 55.0195 9.08203 54.7461 8.98438C54.2448 8.78906 53.75 8.56771 53.2617 8.32031C52.7799 8.07292 52.3405 7.77995 51.9434 7.44141C51.5462 7.09635 51.237 6.69596 51.0156 6.24023C50.7943 5.77799 50.7031 5.23763 50.7422 4.61914C50.7878 3.91602 50.9863 3.30729 51.3379 2.79297C51.6895 2.27865 52.1354 1.85872 52.6758 1.5332C53.2227 1.20117 53.8151 0.957031 54.4531 0.800781C55.0977 0.644531 55.7292 0.572917 56.3477 0.585938C57.2331 0.598958 58.0208 0.784505 58.7109 1.14258C59.401 1.49414 59.9414 1.99544 60.332 2.64648C60.7292 3.29102 60.9147 4.06576 60.8887 4.9707H58.0566C58.0827 4.54102 58.0273 4.16992 57.8906 3.85742C57.7604 3.53841 57.5488 3.29427 57.2559 3.125C56.9694 2.94922 56.6016 2.85482 56.1523 2.8418C55.7682 2.83529 55.3906 2.89714 55.0195 3.02734C54.6549 3.15104 54.3392 3.34635 54.0723 3.61328C53.8118 3.8737 53.6491 4.21224 53.584 4.62891C53.5319 4.9349 53.5742 5.19857 53.7109 5.41992C53.8542 5.64128 54.0462 5.83008 54.2871 5.98633C54.5345 6.14258 54.7949 6.27604 55.0684 6.38672C55.3483 6.49089 55.599 6.58529 55.8203 6.66992C56.3477 6.85872 56.8555 7.08333 57.3438 7.34375C57.8385 7.60417 58.2747 7.91341 58.6523 8.27148C59.0299 8.62305 59.3197 9.03971 59.5215 9.52148C59.7233 9.99674 59.8047 10.5501 59.7656 11.1816C59.707 11.9043 59.5117 12.5228 59.1797 13.0371C58.8477 13.5449 58.418 13.9616 57.8906 14.2871C57.3633 14.6061 56.7871 14.8405 56.1621 14.9902C55.5371 15.14 54.9023 15.2116 54.2578 15.2051C53.5547 15.1921 52.8939 15.0814 52.2754 14.873C51.6569 14.6647 51.1165 14.3652 50.6543 13.9746C50.1921 13.5775 49.834 13.0924 49.5801 12.5195C49.3327 11.9401 49.2188 11.2793 49.2383 10.5371L52.0996 10.5469C52.0736 10.944 52.1029 11.2923 52.1875 11.5918C52.2786 11.8848 52.4219 12.1322 52.6172 12.334C52.819 12.5358 53.0664 12.6888 53.3594 12.793C53.6589 12.8906 54.0072 12.9427 54.4043 12.9492C54.7884 12.9492 55.1595 12.8906 55.5176 12.7734C55.8757 12.6562 56.1816 12.4707 56.4355 12.2168C56.6895 11.9564 56.849 11.6211 56.9141 11.2109ZM71.709 6.57227L71.3086 8.85742H64.0918L64.4922 6.57227H71.709ZM66.3574 0.78125L63.8867 15H61.0254L63.4863 0.78125H66.3574ZM74.7363 0.78125L72.2656 15H69.4238L71.8848 0.78125H74.7363ZM87.3535 7.50977L87.2754 8.19336C87.1452 9.10482 86.901 9.98372 86.543 10.8301C86.1849 11.6764 85.7161 12.4316 85.1367 13.0957C84.5573 13.7533 83.8672 14.2741 83.0664 14.6582C82.2721 15.0358 81.3704 15.2148 80.3613 15.1953C79.3978 15.1758 78.5807 14.9674 77.9102 14.5703C77.2461 14.1667 76.7188 13.6328 76.3281 12.9688C75.944 12.3047 75.6868 11.5658 75.5566 10.752C75.4264 9.93164 75.4134 9.0918 75.5176 8.23242L75.5957 7.55859C75.7259 6.64714 75.9701 5.77148 76.3281 4.93164C76.6927 4.0918 77.1647 3.3431 77.7441 2.68555C78.3301 2.02148 79.0202 1.50065 79.8145 1.12305C80.6152 0.745443 81.5137 0.566406 82.5098 0.585938C83.4733 0.598958 84.2871 0.807292 84.9512 1.21094C85.6217 1.60807 86.1491 2.13867 86.5332 2.80273C86.9238 3.46029 87.1842 4.19922 87.3145 5.01953C87.4447 5.83333 87.4577 6.66341 87.3535 7.50977ZM84.375 8.23242L84.4727 7.5293C84.5247 7.08659 84.5508 6.60807 84.5508 6.09375C84.5573 5.57292 84.4987 5.07487 84.375 4.59961C84.2513 4.11784 84.0299 3.72396 83.7109 3.41797C83.3984 3.10547 82.946 2.9362 82.3535 2.91016C81.7155 2.89062 81.1686 3.01758 80.7129 3.29102C80.2637 3.56445 79.8861 3.93555 79.5801 4.4043C79.2806 4.86654 79.043 5.37435 78.8672 5.92773C78.6979 6.47461 78.5742 7.01172 78.4961 7.53906L78.4082 8.24219C78.3496 8.67839 78.3171 9.16016 78.3105 9.6875C78.3105 10.2083 78.3724 10.7096 78.4961 11.1914C78.6198 11.6667 78.8411 12.0605 79.1602 12.373C79.4792 12.6855 79.9349 12.8548 80.5273 12.8809C81.1589 12.9004 81.6992 12.7702 82.1484 12.4902C82.6042 12.2103 82.985 11.8392 83.291 11.377C83.597 10.9082 83.8379 10.4004 84.0137 9.85352C84.1895 9.30013 84.3099 8.75977 84.375 8.23242ZM97.793 12.7148L97.3926 15H90.0391L90.4297 12.7148H97.793ZM93.4473 0.78125L90.9766 15H88.1152L90.5762 0.78125H93.4473ZM97.9004 6.57227L97.5098 8.79883H91.1133L91.5039 6.57227H97.9004ZM99.8438 0.78125L99.4434 3.07617H92.0996L92.5098 0.78125H99.8438ZM106.875 11.2109C106.934 10.8659 106.904 10.5762 106.787 10.3418C106.676 10.1009 106.507 9.89909 106.279 9.73633C106.058 9.56706 105.807 9.42383 105.527 9.30664C105.254 9.18945 104.98 9.08203 104.707 8.98438C104.206 8.78906 103.711 8.56771 103.223 8.32031C102.741 8.07292 102.301 7.77995 101.904 7.44141C101.507 7.09635 101.198 6.69596 100.977 6.24023C100.755 5.77799 100.664 5.23763 100.703 4.61914C100.749 3.91602 100.947 3.30729 101.299 2.79297C101.65 2.27865 102.096 1.85872 102.637 1.5332C103.184 1.20117 103.776 0.957031 104.414 0.800781C105.059 0.644531 105.69 0.572917 106.309 0.585938C107.194 0.598958 107.982 0.784505 108.672 1.14258C109.362 1.49414 109.902 1.99544 110.293 2.64648C110.69 3.29102 110.876 4.06576 110.85 4.9707H108.018C108.044 4.54102 107.988 4.16992 107.852 3.85742C107.721 3.53841 107.51 3.29427 107.217 3.125C106.93 2.94922 106.562 2.85482 106.113 2.8418C105.729 2.83529 105.352 2.89714 104.98 3.02734C104.616 3.15104 104.3 3.34635 104.033 3.61328C103.773 3.8737 103.61 4.21224 103.545 4.62891C103.493 4.9349 103.535 5.19857 103.672 5.41992C103.815 5.64128 104.007 5.83008 104.248 5.98633C104.495 6.14258 104.756 6.27604 105.029 6.38672C105.309 6.49089 105.56 6.58529 105.781 6.66992C106.309 6.85872 106.816 7.08333 107.305 7.34375C107.799 7.60417 108.236 7.91341 108.613 8.27148C108.991 8.62305 109.281 9.03971 109.482 9.52148C109.684 9.99674 109.766 10.5501 109.727 11.1816C109.668 11.9043 109.473 12.5228 109.141 13.0371C108.809 13.5449 108.379 13.9616 107.852 14.2871C107.324 14.6061 106.748 14.8405 106.123 14.9902C105.498 15.14 104.863 15.2116 104.219 15.2051C103.516 15.1921 102.855 15.0814 102.236 14.873C101.618 14.6647 101.077 14.3652 100.615 13.9746C100.153 13.5775 99.7949 13.0924 99.541 12.5195C99.2936 11.9401 99.1797 11.2793 99.1992 10.5371L102.061 10.5469C102.035 10.944 102.064 11.2923 102.148 11.5918C102.24 11.8848 102.383 12.1322 102.578 12.334C102.78 12.5358 103.027 12.6888 103.32 12.793C103.62 12.8906 103.968 12.9427 104.365 12.9492C104.749 12.9492 105.12 12.8906 105.479 12.7734C105.837 12.6562 106.143 12.4707 106.396 12.2168C106.65 11.9564 106.81 11.6211 106.875 11.2109ZM111.191 13.6914C111.185 13.2487 111.331 12.8841 111.631 12.5977C111.937 12.3112 112.308 12.168 112.744 12.168C113.161 12.1615 113.519 12.2917 113.818 12.5586C114.124 12.819 114.281 13.1641 114.287 13.5938C114.294 14.0365 114.144 14.401 113.838 14.6875C113.538 14.974 113.171 15.1172 112.734 15.1172C112.318 15.1237 111.956 14.9967 111.65 14.7363C111.351 14.4694 111.198 14.1211 111.191 13.6914ZM125.371 10.293L128.164 10.2539C128.04 11.3021 127.686 12.2005 127.1 12.9492C126.52 13.6914 125.791 14.2578 124.912 14.6484C124.033 15.0326 123.079 15.2148 122.051 15.1953C121.1 15.1758 120.299 14.974 119.648 14.5898C118.997 14.1992 118.486 13.6784 118.115 13.0273C117.744 12.3763 117.5 11.6504 117.383 10.8496C117.266 10.0488 117.259 9.22852 117.363 8.38867L117.5 7.40234C117.63 6.51693 117.868 5.66081 118.213 4.83398C118.564 4.00716 119.023 3.27148 119.59 2.62695C120.156 1.98242 120.827 1.47461 121.602 1.10352C122.376 0.732422 123.255 0.556641 124.238 0.576172C125.267 0.595703 126.136 0.817057 126.846 1.24023C127.562 1.6569 128.112 2.23958 128.496 2.98828C128.887 3.73047 129.105 4.59961 129.15 5.5957L126.309 5.58594C126.315 5.05859 126.25 4.59635 126.113 4.19922C125.983 3.79557 125.755 3.48307 125.43 3.26172C125.104 3.03385 124.655 2.91016 124.082 2.89062C123.457 2.87109 122.926 2.99479 122.49 3.26172C122.054 3.52865 121.693 3.88672 121.406 4.33594C121.126 4.78516 120.905 5.27669 120.742 5.81055C120.586 6.3444 120.469 6.86849 120.391 7.38281L120.254 8.39844C120.202 8.82161 120.166 9.29036 120.146 9.80469C120.127 10.3125 120.169 10.7975 120.273 11.2598C120.378 11.722 120.579 12.1061 120.879 12.4121C121.178 12.7116 121.624 12.8711 122.217 12.8906C122.803 12.9102 123.307 12.819 123.73 12.6172C124.16 12.4154 124.508 12.1159 124.775 11.7188C125.049 11.3216 125.247 10.8464 125.371 10.293ZM141.924 7.50977L141.846 8.19336C141.715 9.10482 141.471 9.98372 141.113 10.8301C140.755 11.6764 140.286 12.4316 139.707 13.0957C139.128 13.7533 138.438 14.2741 137.637 14.6582C136.842 15.0358 135.941 15.2148 134.932 15.1953C133.968 15.1758 133.151 14.9674 132.48 14.5703C131.816 14.1667 131.289 13.6328 130.898 12.9688C130.514 12.3047 130.257 11.5658 130.127 10.752C129.997 9.93164 129.984 9.0918 130.088 8.23242L130.166 7.55859C130.296 6.64714 130.54 5.77148 130.898 4.93164C131.263 4.0918 131.735 3.3431 132.314 2.68555C132.9 2.02148 133.59 1.50065 134.385 1.12305C135.186 0.745443 136.084 0.566406 137.08 0.585938C138.044 0.598958 138.857 0.807292 139.521 1.21094C140.192 1.60807 140.719 2.13867 141.104 2.80273C141.494 3.46029 141.755 4.19922 141.885 5.01953C142.015 5.83333 142.028 6.66341 141.924 7.50977ZM138.945 8.23242L139.043 7.5293C139.095 7.08659 139.121 6.60807 139.121 6.09375C139.128 5.57292 139.069 5.07487 138.945 4.59961C138.822 4.11784 138.6 3.72396 138.281 3.41797C137.969 3.10547 137.516 2.9362 136.924 2.91016C136.286 2.89062 135.739 3.01758 135.283 3.29102C134.834 3.56445 134.456 3.93555 134.15 4.4043C133.851 4.86654 133.613 5.37435 133.438 5.92773C133.268 6.47461 133.145 7.01172 133.066 7.53906L132.979 8.24219C132.92 8.67839 132.887 9.16016 132.881 9.6875C132.881 10.2083 132.943 10.7096 133.066 11.1914C133.19 11.6667 133.411 12.0605 133.73 12.373C134.049 12.6855 134.505 12.8548 135.098 12.8809C135.729 12.9004 136.27 12.7702 136.719 12.4902C137.174 12.2103 137.555 11.8392 137.861 11.377C138.167 10.9082 138.408 10.4004 138.584 9.85352C138.76 9.30013 138.88 8.75977 138.945 8.23242ZM146.504 0.78125H148.828L150.557 11.1914L155.898 0.78125H158.418L150.977 15H149.023L146.504 0.78125ZM145.146 0.78125H147.568L146.23 11.084L145.537 15H142.686L145.146 0.78125ZM157.246 0.78125H159.678L157.217 15H154.346L155.078 10.8398L157.246 0.78125ZM159.883 13.6914C159.876 13.2487 160.023 12.8841 160.322 12.5977C160.628 12.3112 160.999 12.168 161.436 12.168C161.852 12.1615 162.21 12.2917 162.51 12.5586C162.816 12.819 162.972 13.1641 162.979 13.5938C162.985 14.0365 162.835 14.401 162.529 14.6875C162.23 14.974 161.862 15.1172 161.426 15.1172C161.009 15.1237 160.648 14.9967 160.342 14.7363C160.042 14.4694 159.889 14.1211 159.883 13.6914ZM171.914 8.75977H168.242L168.584 6.74805L171.416 6.75781C171.846 6.75781 172.256 6.69922 172.646 6.58203C173.044 6.45833 173.376 6.25977 173.643 5.98633C173.916 5.70638 174.089 5.33203 174.16 4.86328C174.219 4.42057 174.18 4.07227 174.043 3.81836C173.906 3.56445 173.688 3.38216 173.389 3.27148C173.096 3.1543 172.747 3.09245 172.344 3.08594L170.234 3.07617L168.164 15H165.303L167.764 0.78125L172.432 0.791016C173.044 0.797526 173.636 0.869141 174.209 1.00586C174.782 1.14258 175.29 1.35742 175.732 1.65039C176.175 1.94336 176.517 2.33073 176.758 2.8125C177.005 3.29427 177.106 3.88672 177.061 4.58984C177.015 5.35807 176.794 5.98958 176.396 6.48438C175.999 6.97266 175.492 7.34049 174.873 7.58789C174.261 7.83529 173.604 7.97852 172.9 8.01758L171.914 8.75977ZM170.752 15H166.318L167.822 12.7148L170.84 12.7246C171.27 12.7246 171.67 12.653 172.041 12.5098C172.419 12.36 172.734 12.1387 172.988 11.8457C173.242 11.5527 173.402 11.1784 173.467 10.7227C173.525 10.3385 173.509 10.0033 173.418 9.7168C173.327 9.42383 173.158 9.19922 172.91 9.04297C172.669 8.88021 172.347 8.78906 171.943 8.76953L169.053 8.75977L169.414 6.74805L172.734 6.75781L173.223 7.53906C173.861 7.57161 174.414 7.7181 174.883 7.97852C175.358 8.23242 175.719 8.59375 175.967 9.0625C176.214 9.53125 176.315 10.0944 176.27 10.752C176.204 11.7676 175.908 12.5879 175.381 13.2129C174.854 13.8379 174.18 14.2936 173.359 14.5801C172.546 14.8665 171.676 15.0065 170.752 15ZM180.146 0.78125L185.156 0.791016C186.022 0.804036 186.807 0.963542 187.51 1.26953C188.219 1.57552 188.77 2.03451 189.16 2.64648C189.557 3.25846 189.723 4.03646 189.658 4.98047C189.593 5.75521 189.404 6.40951 189.092 6.94336C188.786 7.47721 188.372 7.92969 187.852 8.30078C187.337 8.67188 186.745 8.99089 186.074 9.25781L185.078 9.73633H180.449L180.84 7.45117L184.023 7.4707C184.499 7.46419 184.932 7.37305 185.322 7.19727C185.713 7.02148 186.035 6.76758 186.289 6.43555C186.549 6.09701 186.712 5.68685 186.777 5.20508C186.836 4.7819 186.807 4.41406 186.689 4.10156C186.579 3.78906 186.387 3.54492 186.113 3.36914C185.84 3.19336 185.492 3.09896 185.068 3.08594L182.617 3.07617L180.547 15H177.686L180.146 0.78125ZM185.469 15L183.418 8.66211L186.299 8.64258L188.516 14.8438V15H185.469Z" fill="white"/>
</svg>
