<svg width="116" height="16" viewBox="0 0 116 16" fill="none" xmlns="http://www.w3.org/2000/svg">
<path d="M9.88281 12.7148L9.48242 15H2.12891L2.51953 12.7148H9.88281ZM5.53711 0.78125L3.06641 15H0.205078L2.66602 0.78125H5.53711ZM9.99023 6.57227L9.59961 8.79883H3.20312L3.59375 6.57227H9.99023ZM11.9336 0.78125L11.5332 3.07617H4.18945L4.59961 0.78125H11.9336ZM17.7344 8.75977H14.0625L14.4043 6.74805L17.2363 6.75781C17.666 6.75781 18.0762 6.69922 18.4668 6.58203C18.8639 6.45833 19.196 6.25977 19.4629 5.98633C19.7363 5.70638 19.9089 5.33203 19.9805 4.86328C20.0391 4.42057 20 4.07227 19.8633 3.81836C19.7266 3.56445 19.5085 3.38216 19.209 3.27148C18.916 3.1543 18.5677 3.09245 18.1641 3.08594L16.0547 3.07617L13.9844 15H11.123L13.584 0.78125L18.252 0.791016C18.8639 0.797526 19.4564 0.869141 20.0293 1.00586C20.6022 1.14258 21.11 1.35742 21.5527 1.65039C21.9954 1.94336 22.3372 2.33073 22.5781 2.8125C22.8255 3.29427 22.9264 3.88672 22.8809 4.58984C22.8353 5.35807 22.6139 5.98958 22.2168 6.48438C21.8197 6.97266 21.3118 7.34049 20.6934 7.58789C20.0814 7.83529 19.4238 7.97852 18.7207 8.01758L17.7344 8.75977ZM16.5723 15H12.1387L13.6426 12.7148L16.6602 12.7246C17.0898 12.7246 17.4902 12.653 17.8613 12.5098C18.2389 12.36 18.5547 12.1387 18.8086 11.8457C19.0625 11.5527 19.222 11.1784 19.2871 10.7227C19.3457 10.3385 19.3294 10.0033 19.2383 9.7168C19.1471 9.42383 18.9779 9.19922 18.7305 9.04297C18.4896 8.88021 18.1673 8.78906 17.7637 8.76953L14.873 8.75977L15.2344 6.74805L18.5547 6.75781L19.043 7.53906C19.681 7.57161 20.2344 7.7181 20.7031 7.97852C21.1784 8.23242 21.5397 8.59375 21.7871 9.0625C22.0345 9.53125 22.1354 10.0944 22.0898 10.752C22.0247 11.7676 21.7285 12.5879 21.2012 13.2129C20.6738 13.8379 20 14.2936 19.1797 14.5801C18.3659 14.8665 17.4967 15.0065 16.5723 15ZM31.1523 3.35938L25.4297 15H22.2852L29.8828 0.78125H31.8945L31.1523 3.35938ZM32.2852 15L30.5469 3.05664L30.6543 0.78125H32.5391L35.2246 15H32.2852ZM33.0078 9.70703L32.6074 12.002H25.293L25.6934 9.70703H33.0078ZM45.1367 10.293L47.9297 10.2539C47.806 11.3021 47.4512 12.2005 46.8652 12.9492C46.2858 13.6914 45.5566 14.2578 44.6777 14.6484C43.7988 15.0326 42.8451 15.2148 41.8164 15.1953C40.8659 15.1758 40.0651 14.974 39.4141 14.5898C38.763 14.1992 38.252 13.6784 37.8809 13.0273C37.5098 12.3763 37.2656 11.6504 37.1484 10.8496C37.0312 10.0488 37.0247 9.22852 37.1289 8.38867L37.2656 7.40234C37.3958 6.51693 37.6335 5.66081 37.9785 4.83398C38.3301 4.00716 38.7891 3.27148 39.3555 2.62695C39.9219 1.98242 40.5924 1.47461 41.3672 1.10352C42.1419 0.732422 43.0208 0.556641 44.0039 0.576172C45.0326 0.595703 45.9017 0.817057 46.6113 1.24023C47.3275 1.6569 47.8776 2.23958 48.2617 2.98828C48.6523 3.73047 48.8704 4.59961 48.916 5.5957L46.0742 5.58594C46.0807 5.05859 46.0156 4.59635 45.8789 4.19922C45.7487 3.79557 45.5208 3.48307 45.1953 3.26172C44.8698 3.03385 44.4206 2.91016 43.8477 2.89062C43.2227 2.87109 42.6921 2.99479 42.2559 3.26172C41.8197 3.52865 41.4583 3.88672 41.1719 4.33594C40.8919 4.78516 40.6706 5.27669 40.5078 5.81055C40.3516 6.3444 40.2344 6.86849 40.1562 7.38281L40.0195 8.39844C39.9674 8.82161 39.9316 9.29036 39.9121 9.80469C39.8926 10.3125 39.9349 10.7975 40.0391 11.2598C40.1432 11.722 40.3451 12.1061 40.6445 12.4121C40.944 12.7116 41.39 12.8711 41.9824 12.8906C42.5684 12.9102 43.0729 12.819 43.4961 12.6172C43.9258 12.4154 44.2741 12.1159 44.541 11.7188C44.8145 11.3216 45.013 10.8464 45.1367 10.293ZM61.8359 11.2109C61.8945 10.8659 61.8652 10.5762 61.748 10.3418C61.6374 10.1009 61.4681 9.89909 61.2402 9.73633C61.0189 9.56706 60.7682 9.42383 60.4883 9.30664C60.2148 9.18945 59.9414 9.08203 59.668 8.98438C59.1667 8.78906 58.6719 8.56771 58.1836 8.32031C57.7018 8.07292 57.2624 7.77995 56.8652 7.44141C56.4681 7.09635 56.1589 6.69596 55.9375 6.24023C55.7161 5.77799 55.625 5.23763 55.6641 4.61914C55.7096 3.91602 55.9082 3.30729 56.2598 2.79297C56.6113 2.27865 57.0573 1.85872 57.5977 1.5332C58.1445 1.20117 58.737 0.957031 59.375 0.800781C60.0195 0.644531 60.651 0.572917 61.2695 0.585938C62.1549 0.598958 62.9427 0.784505 63.6328 1.14258C64.3229 1.49414 64.8633 1.99544 65.2539 2.64648C65.651 3.29102 65.8366 4.06576 65.8105 4.9707H62.9785C63.0046 4.54102 62.9492 4.16992 62.8125 3.85742C62.6823 3.53841 62.4707 3.29427 62.1777 3.125C61.8913 2.94922 61.5234 2.85482 61.0742 2.8418C60.6901 2.83529 60.3125 2.89714 59.9414 3.02734C59.5768 3.15104 59.2611 3.34635 58.9941 3.61328C58.7337 3.8737 58.571 4.21224 58.5059 4.62891C58.4538 4.9349 58.4961 5.19857 58.6328 5.41992C58.776 5.64128 58.9681 5.83008 59.209 5.98633C59.4564 6.14258 59.7168 6.27604 59.9902 6.38672C60.2702 6.49089 60.5208 6.58529 60.7422 6.66992C61.2695 6.85872 61.7773 7.08333 62.2656 7.34375C62.7604 7.60417 63.1966 7.91341 63.5742 8.27148C63.9518 8.62305 64.2415 9.03971 64.4434 9.52148C64.6452 9.99674 64.7266 10.5501 64.6875 11.1816C64.6289 11.9043 64.4336 12.5228 64.1016 13.0371C63.7695 13.5449 63.3398 13.9616 62.8125 14.2871C62.2852 14.6061 61.709 14.8405 61.084 14.9902C60.459 15.14 59.8242 15.2116 59.1797 15.2051C58.4766 15.1921 57.8158 15.0814 57.1973 14.873C56.5788 14.6647 56.0384 14.3652 55.5762 13.9746C55.1139 13.5775 54.7559 13.0924 54.502 12.5195C54.2546 11.9401 54.1406 11.2793 54.1602 10.5371L57.0215 10.5469C56.9954 10.944 57.0247 11.2923 57.1094 11.5918C57.2005 11.8848 57.3438 12.1322 57.5391 12.334C57.7409 12.5358 57.9883 12.6888 58.2812 12.793C58.5807 12.8906 58.929 12.9427 59.3262 12.9492C59.7103 12.9492 60.0814 12.8906 60.4395 12.7734C60.7975 12.6562 61.1035 12.4707 61.3574 12.2168C61.6113 11.9564 61.7708 11.6211 61.8359 11.2109ZM76.6309 6.57227L76.2305 8.85742H69.0137L69.4141 6.57227H76.6309ZM71.2793 0.78125L68.8086 15H65.9473L68.4082 0.78125H71.2793ZM79.6582 0.78125L77.1875 15H74.3457L76.8066 0.78125H79.6582ZM92.2754 7.50977L92.1973 8.19336C92.0671 9.10482 91.8229 9.98372 91.4648 10.8301C91.1068 11.6764 90.638 12.4316 90.0586 13.0957C89.4792 13.7533 88.7891 14.2741 87.9883 14.6582C87.194 15.0358 86.2923 15.2148 85.2832 15.1953C84.3197 15.1758 83.5026 14.9674 82.832 14.5703C82.168 14.1667 81.6406 13.6328 81.25 12.9688C80.8659 12.3047 80.6087 11.5658 80.4785 10.752C80.3483 9.93164 80.3353 9.0918 80.4395 8.23242L80.5176 7.55859C80.6478 6.64714 80.8919 5.77148 81.25 4.93164C81.6146 4.0918 82.0866 3.3431 82.666 2.68555C83.252 2.02148 83.9421 1.50065 84.7363 1.12305C85.5371 0.745443 86.4355 0.566406 87.4316 0.585938C88.3952 0.598958 89.209 0.807292 89.873 1.21094C90.5436 1.60807 91.071 2.13867 91.4551 2.80273C91.8457 3.46029 92.1061 4.19922 92.2363 5.01953C92.3665 5.83333 92.3796 6.66341 92.2754 7.50977ZM89.2969 8.23242L89.3945 7.5293C89.4466 7.08659 89.4727 6.60807 89.4727 6.09375C89.4792 5.57292 89.4206 5.07487 89.2969 4.59961C89.1732 4.11784 88.9518 3.72396 88.6328 3.41797C88.3203 3.10547 87.8678 2.9362 87.2754 2.91016C86.6374 2.89062 86.0905 3.01758 85.6348 3.29102C85.1855 3.56445 84.8079 3.93555 84.502 4.4043C84.2025 4.86654 83.9648 5.37435 83.7891 5.92773C83.6198 6.47461 83.4961 7.01172 83.418 7.53906L83.3301 8.24219C83.2715 8.67839 83.2389 9.16016 83.2324 9.6875C83.2324 10.2083 83.2943 10.7096 83.418 11.1914C83.5417 11.6667 83.763 12.0605 84.082 12.373C84.401 12.6855 84.8568 12.8548 85.4492 12.8809C86.0807 12.9004 86.6211 12.7702 87.0703 12.4902C87.526 12.2103 87.9069 11.8392 88.2129 11.377C88.5189 10.9082 88.7598 10.4004 88.9355 9.85352C89.1113 9.30013 89.2318 8.75977 89.2969 8.23242ZM102.715 12.7148L102.314 15H94.9609L95.3516 12.7148H102.715ZM98.3691 0.78125L95.8984 15H93.0371L95.498 0.78125H98.3691ZM102.822 6.57227L102.432 8.79883H96.0352L96.4258 6.57227H102.822ZM104.766 0.78125L104.365 3.07617H97.0215L97.4316 0.78125H104.766ZM111.797 11.2109C111.855 10.8659 111.826 10.5762 111.709 10.3418C111.598 10.1009 111.429 9.89909 111.201 9.73633C110.98 9.56706 110.729 9.42383 110.449 9.30664C110.176 9.18945 109.902 9.08203 109.629 8.98438C109.128 8.78906 108.633 8.56771 108.145 8.32031C107.663 8.07292 107.223 7.77995 106.826 7.44141C106.429 7.09635 106.12 6.69596 105.898 6.24023C105.677 5.77799 105.586 5.23763 105.625 4.61914C105.671 3.91602 105.869 3.30729 106.221 2.79297C106.572 2.27865 107.018 1.85872 107.559 1.5332C108.105 1.20117 108.698 0.957031 109.336 0.800781C109.98 0.644531 110.612 0.572917 111.23 0.585938C112.116 0.598958 112.904 0.784505 113.594 1.14258C114.284 1.49414 114.824 1.99544 115.215 2.64648C115.612 3.29102 115.798 4.06576 115.771 4.9707H112.939C112.965 4.54102 112.91 4.16992 112.773 3.85742C112.643 3.53841 112.432 3.29427 112.139 3.125C111.852 2.94922 111.484 2.85482 111.035 2.8418C110.651 2.83529 110.273 2.89714 109.902 3.02734C109.538 3.15104 109.222 3.34635 108.955 3.61328C108.695 3.8737 108.532 4.21224 108.467 4.62891C108.415 4.9349 108.457 5.19857 108.594 5.41992C108.737 5.64128 108.929 5.83008 109.17 5.98633C109.417 6.14258 109.678 6.27604 109.951 6.38672C110.231 6.49089 110.482 6.58529 110.703 6.66992C111.23 6.85872 111.738 7.08333 112.227 7.34375C112.721 7.60417 113.158 7.91341 113.535 8.27148C113.913 8.62305 114.202 9.03971 114.404 9.52148C114.606 9.99674 114.688 10.5501 114.648 11.1816C114.59 11.9043 114.395 12.5228 114.062 13.0371C113.73 13.5449 113.301 13.9616 112.773 14.2871C112.246 14.6061 111.67 14.8405 111.045 14.9902C110.42 15.14 109.785 15.2116 109.141 15.2051C108.438 15.1921 107.777 15.0814 107.158 14.873C106.54 14.6647 105.999 14.3652 105.537 13.9746C105.075 13.5775 104.717 13.0924 104.463 12.5195C104.215 11.9401 104.102 11.2793 104.121 10.5371L106.982 10.5469C106.956 10.944 106.986 11.2923 107.07 11.5918C107.161 11.8848 107.305 12.1322 107.5 12.334C107.702 12.5358 107.949 12.6888 108.242 12.793C108.542 12.8906 108.89 12.9427 109.287 12.9492C109.671 12.9492 110.042 12.8906 110.4 12.7734C110.758 12.6562 111.064 12.4707 111.318 12.2168C111.572 11.9564 111.732 11.6211 111.797 11.2109Z" fill="white"/>
</svg>
